<svg xmlns="http://www.w3.org/2000/svg" viewBox="0 0 96 96" width="96" height="96">
  <defs>
    <linearGradient id="g" x1="0" y1="0" x2="0" y2="1">
      <stop offset="0" stop-color="#FDE7EE"/><stop offset="1" stop-color="#F8C8D8"/>
    </linearGradient>
  </defs>
  <path d="M22 50 C22 26 74 26 74 50" fill="none" stroke="#C9B6F2" stroke-width="7" stroke-linecap="round"/>
  <rect x="24" y="36" width="48" height="44" rx="16" fill="url(#g)" stroke="#E75A8C" stroke-width="2.5"/>
  <ellipse cx="48" cy="38" rx="24" ry="8" fill="#FFF7F9" stroke="#E75A8C" stroke-width="2.5"/>
  <rect x="13" y="46" width="13" height="19" rx="6.5" fill="#C9B6F2" stroke="#4A2A3C" stroke-width="2"/>
  <rect x="70" y="46" width="13" height="19" rx="6.5" fill="#C9B6F2" stroke="#4A2A3C" stroke-width="2"/>
  <circle cx="40" cy="58" r="2.6" fill="#4A2A3C"/><circle cx="56" cy="58" r="2.6" fill="#4A2A3C"/>
  <path d="M42 66 Q48 71 54 66" fill="none" stroke="#4A2A3C" stroke-width="2.4" stroke-linecap="round"/>
  <circle cx="34" cy="64" r="3" fill="#F49A8B" opacity=".7"/><circle cx="62" cy="64" r="3" fill="#F49A8B" opacity=".7"/>
  <path d="M80 14l2 5 5 2-5 2-2 5-2-5-5-2 5-2z" fill="#E75A8C"/>
  <path d="M14 22l1.3 3.2 3.2 1.3-3.2 1.3-1.3 3.2-1.3-3.2-3.2-1.3 3.2-1.3z" fill="#C9B6F2"/>
</svg>
